<svg width="143" height="25" viewBox="0 0 143 25" fill="none" xmlns="http://www.w3.org/2000/svg">
<path d="M4.35938 24.1797V22H6.53906V24.1797H4.35938ZM2.17969 22V13.2812H4.35938V22H2.17969ZM0 13.2812V11.1016H2.17969V13.2812H0ZM2.17969 11.1016V2.37109H4.35938V11.1016H2.17969ZM4.35938 2.37109V0.191406H6.53906V2.37109H4.35938ZM10.8984 22V19.8203H17.4375V22H10.8984ZM17.4375 19.8203V17.6406H19.6172V19.8203H17.4375ZM8.71875 19.8203V11.1016H10.8984V19.8203H8.71875ZM17.4375 13.2812V11.1016H19.6172V13.2812H17.4375ZM10.8984 11.1016V8.91016H17.4375V11.1016H10.8984ZM24 22V19.8203H30.5391V22H24ZM21.8203 19.8203V11.1016H24V19.8203H21.8203ZM30.5391 19.8203V11.1016H32.7188V19.8203H30.5391ZM24 11.1016V8.91016H30.5391V11.1016H24ZM34.9219 19.8203V11.1016H37.1016V19.8203H34.9219ZM37.1016 22V19.8203H43.6406V11.1016H37.1016V8.91016H43.6406V2.37109H45.8203V22H37.1016ZM50.2031 22V19.8203H56.7422V22H50.2031ZM56.7422 19.8203V17.6406H58.9219V19.8203H56.7422ZM48.0234 19.8203V11.1016H50.2031V13.2812H56.7422V11.1016H58.9219V15.4609H50.2031V19.8203H48.0234ZM50.2031 11.1016V8.91016H56.7422V11.1016H50.2031ZM61.125 24.1797V22H63.3047V24.1797H61.125ZM63.3047 22V13.2812H65.4844V22H63.3047ZM65.4844 13.2812V11.1016H67.6641V13.2812H65.4844ZM63.3047 11.1016V2.37109H65.4844V11.1016H63.3047ZM61.125 2.37109V0.191406H63.3047V2.37109H61.125ZM77.4844 22V19.8203H79.6641V22H77.4844ZM75.3047 19.8203V4.55078H77.4844V8.91016H79.6641V11.1016H77.4844V19.8203H75.3047ZM81.8438 22V8.91016H86.2031V11.1016H84.0234V22H81.8438ZM90.5625 22V19.8203H97.1016V22H90.5625ZM88.3828 19.8203V11.1016H90.5625V19.8203H88.3828ZM97.1016 19.8203V11.1016H99.2812V19.8203H97.1016ZM90.5625 11.1016V8.91016H97.1016V11.1016H90.5625ZM103.664 22V19.8203H108.023V22H103.664ZM101.484 19.8203V8.91016H103.664V19.8203H101.484ZM110.203 22V19.8203H108.023V17.6406H110.203V8.91016H112.383V22H110.203ZM123.305 19.8203V11.1016H125.484V19.8203H123.305ZM114.586 22V2.37109H116.766V8.91016H123.305V11.1016H116.766V19.8203H123.305V22H114.586ZM127.688 22V2.37109H129.867V22H127.688ZM134.227 22V19.8203H140.766V22H134.227ZM140.766 19.8203V17.6406H142.945V19.8203H140.766ZM132.047 19.8203V11.1016H134.227V13.2812H140.766V11.1016H142.945V15.4609H134.227V19.8203H132.047ZM134.227 11.1016V8.91016H140.766V11.1016H134.227Z" fill="#15181B"/>
</svg>
